<svg viewBox="0 0 610 240" fill="none" xmlns="http://www.w3.org/2000/svg"><g clip-path="url(#clip0)" fill="#0B0E35"><path d="M234.44 118.223v-17.07h-24.52v-19.69h-19.95v19.69h-20.72v17.07h20.72v25.779c0 12.179 2.34 19.459 7.38 24.499 6.85 6.86 16.09 8.54 23.89 8.54 9.34 0 12.35-1.53 12.35-1.53v-16.84a75.28 75.28 0 01-11.6.76c-2.37 0-6.53-.53-9.22-3.22-2.34-2.34-2.89-6.219-2.89-9.479v-28.509h24.56zM289.75 99.613c-8.36 0-15.77 2.93-20.33 7.49a20.023 20.023 0 00-1.41 1.56v-7.51h-19.17v74.388h19.91v-46.539a22.758 22.758 0 0119.47-10.999c2.74.019 5.474.276 8.17.77v-18.54a43.525 43.525 0 00-6.64-.62zM471.61 101.153h-21l-20.24 44.339-21.63-44.339H386.8l33.29 66.868v.01L405.02 200h20.85l45.74-98.847zM359.31 101.153v5.9a36.171 36.171 0 00-21.76-7.44c-20.1 0-36.57 16.69-36.57 38.809 0 22.119 17 38.649 37.47 38.649 12.75 0 20.12-6.73 20.82-7.39v5.86h19.14v-74.388h-19.1zm-18.76 57.518c-10.71 0-19.61-8.149-19.61-20.249 0-11.57 8.24-20.399 19.15-20.399a23.761 23.761 0 0118.41 8.899v22.87a22.297 22.297 0 01-17.95 8.879zM470.67 150.922c2.574.057 5.074.872 7.186 2.344a13.074 13.074 0 015.316 13.46 13.08 13.08 0 01-25.872-2.724 13.104 13.104 0 018.279-12.164 13.095 13.095 0 015.091-.916zM507.36 63.455a12.742 12.742 0 0112.203 15.381 12.741 12.741 0 01-25.203-2.641 12.785 12.785 0 018.051-11.835 12.779 12.779 0 014.949-.905zM517.32 101.153h-19.91v74.388h19.91v-74.388zM570.26 99.613c-21.86 0-39.58 16.87-39.58 38.729 0 21.859 17.72 38.739 39.58 38.739s39.59-16.87 39.59-38.739c0-21.869-17.73-38.729-39.59-38.729zm0 59.058c-10.85 0-19.64-8.209-19.64-20.329 0-11.92 8.79-20.319 19.64-20.319 10.85 0 19.66 8.399 19.66 20.319 0 12.12-8.81 20.329-19.66 20.329zM99.55 40.005a39.82 39.82 0 00-39.82 39.819v7.47h19.91v-7.47a19.91 19.91 0 1119.91 19.92H39.82a39.819 39.819 0 100 79.637h7.46v-19.91h-7.46a19.909 19.909 0 110-39.818h19.91v59.728h19.91v-59.728h19.91a39.84 39.84 0 0037.369-24.437 39.833 39.833 0 00-8.798-43.773A39.825 39.825 0 0099.55 40.005z"/></g><defs><clipPath id="clip0"><path fill="#fff" d="M0 0h609.85v240H0z"/></clipPath></defs></svg>
